# Blender v2.76 (sub 0) OBJ File: 'textured_cube.blend'
# www.blender.org
mtllib textured_cube.mtl
o cube
v -1.000000 -1.000000 1.000000
v -1.000000 1.000000 1.000000
v -1.000000 -1.000000 -1.000000
v -1.000000 1.000000 -1.000000
v 1.000000 -1.000000 1.000000
v 1.000000 1.000000 1.000000
v 1.000000 -1.000000 -1.000000
v 1.000000 1.000000 -1.000000
vt 0.660156 0.329454
vt 0.493517 0.329454
vt 0.493517 -0.003824
vt 0.660156 -0.003825
vt 0.493517 0.662733
vt 0.326877 0.662733
vt 0.326877 0.329454
vt 0.660156 0.662733
vt 0.660156 0.996012
vt 0.493517 0.996012
vt 0.826796 0.329454
vt 0.826796 0.662733
vt 0.160238 0.329454
vt 0.160238 0.662733
vn -1.000000 0.000000 0.000000
vn 0.000000 0.000000 -1.000000
vn 1.000000 0.000000 0.000000
vn 0.000000 0.000000 1.000000
vn 0.000000 -1.000000 0.000000
vn 0.000000 1.000000 0.000000
usemtl cube_material
s off
f 2/1/1 4/2/1 3/3/1 1/4/1
f 4/2/2 8/5/2 7/6/2 3/7/2
f 8/5/3 6/8/3 5/9/3 7/10/3
f 6/8/4 2/1/4 1/11/4 5/12/4
f 1/13/5 3/7/5 7/6/5 5/14/5
f 6/8/6 8/5/6 4/2/6 2/1/6
